<svg xmlns="http://www.w3.org/2000/svg" viewBox="0 0 143 80"><path d="M106,80H36a5,5,0,0,1-5-5V5a5,5,0,0,1,5-5h70a5,5,0,0,1,5,5V75A5.08,5.08,0,0,1,106,80Z" style="fill:#ffdb00"/><path d="M51,19.8S51,5.1,61.2,7.6A7.12,7.12,0,0,1,60,11.4s3.2-2.5,10.8,1.3C70.8,12.8,67.9,27,51,19.8Z" style="fill:#2fa337"/><path d="M70.6,12.7l-.6-.3a26,26,0,0,0-2.5-1,13.68,13.68,0,0,0-5.3-.8,1.27,1.27,0,0,1-.6.1c-.1.1-.2.1-.4.1h0a.76.76,0,0,1-.5.2c-.2,0-.3-.1-.4-.1l-1.1,1.4s3.1-2.4,11.3.7A.37.37,0,0,1,70.6,12.7Z" style="fill:#8bbb23"/><path d="M58.2,7.7a7.94,7.94,0,0,0-2.2.6c-.1,0-.1.1-.2.1l-1.5,1.7A7.3,7.3,0,0,1,61,8.3c0-.1.1-.3.1-.4a1.69,1.69,0,0,0-.5-.2A6.46,6.46,0,0,0,58.2,7.7Z" style="fill:#8bbb23"/><path d="M50.7,19.8a19.27,19.27,0,0,1,.1-2.4c.1-.8.2-1.6.3-2.3l.3-1.2a3.58,3.58,0,0,1,.4-1.1,14.72,14.72,0,0,1,1-2.2,7,7,0,0,1,1.5-1.9,5.71,5.71,0,0,1,2.1-1.3,5.27,5.27,0,0,1,1.2-.3A4.87,4.87,0,0,1,58.8,7a10,10,0,0,1,2.4.4h0l.2.1v.8a.75.75,0,0,1-.1.5c-.1.3-.2.7-.3,1a6.63,6.63,0,0,1-.9,1.9l-.4-.4c.1-.1.1-.1.2-.1s.1-.1.2-.1.2-.1.3-.2a1.85,1.85,0,0,1,.7-.2,7.72,7.72,0,0,1,1.5-.2,9.25,9.25,0,0,1,2.9.2,22.88,22.88,0,0,1,2.8.8,20.29,20.29,0,0,1,2.6,1.1h0l.2.1v.2a2.35,2.35,0,0,1-.2.8c-.1.2-.1.5-.2.8L70.1,16a10,10,0,0,1-.8,1.4,11.32,11.32,0,0,1-1,1.3,12.06,12.06,0,0,1-2.4,2.1A10.76,10.76,0,0,1,63,22.1a11.24,11.24,0,0,1-3.2.4,15.53,15.53,0,0,1-3.1-.3c-1-.2-2-.5-3-.8s-1.9-.7-2.9-1.1l-.1-.3Zm.6-.2,2.7.9a16.66,16.66,0,0,0,2.9.6,15.14,15.14,0,0,0,3,.2,13.52,13.52,0,0,0,2.9-.4,10.66,10.66,0,0,0,2.7-1.2,10,10,0,0,0,2.2-1.9,12.49,12.49,0,0,0,.9-1.2,5.67,5.67,0,0,0,.8-1.3c.2-.4.5-.9.7-1.3a5.78,5.78,0,0,0,.5-1.4l.2.3h0a20.29,20.29,0,0,0-2.6-1.1,27.59,27.59,0,0,0-2.7-.8,8.63,8.63,0,0,0-2.8-.2,5.07,5.07,0,0,0-1.3.2c-.2.1-.4.1-.6.2s-.2.1-.3.1a.1.1,0,0,0-.1.1l-.1.1L59,12.6l.7-1.2a14.17,14.17,0,0,0,.8-1.8,3,3,0,0,0,.2-1c0-.2.1-.3.1-.5V7.6l.2.2h0a16.35,16.35,0,0,0-2.2-.2,5,5,0,0,0-2.1.5,5.67,5.67,0,0,0-1.8,1.2A7,7,0,0,0,53.6,11a12.44,12.44,0,0,0-1,2c-.1.4-.3.7-.4,1.1a5,5,0,0,0-.2,1.2c-.2.7-.3,1.5-.5,2.2A14.92,14.92,0,0,0,51.3,19.6Z"/><path d="M67.6,28.9c0-8-4.6-14.4-10.5-16.1-.3-1.1-1.7-2-3.5-2-2,0-3.6,1.1-3.6,2.4h0c-5.5,2.2-9.9,8.5-9.9,16,0,7.9,4.8,14.5,10.7,16.3a4,4,0,0,0,5.8.1C62.8,44.2,67.6,37.1,67.6,28.9Z" style="fill:#96b321"/><path d="M52.1,44.2C41,38.8,40.6,29.6,41.8,23a2653771530218.9,2653771530218.9,0,0,1-.2.2A23.94,23.94,0,0,0,40.3,26h0c-.1,2.9-.7,5.8-.2,8.6,0,.2.1.3.1.4.2.2.5.4.6.7.5.8.8,1.6,1.3,2.4.5.6,1,1.1,1.5,1.6a17,17,0,0,0,1,1.4,4.89,4.89,0,0,0,1.3,1.2,18.6,18.6,0,0,1,2.8,2.1c.1.1.1.2.2.2A28.27,28.27,0,0,1,52,45.7a12.44,12.44,0,0,0,1.6.4C51.9,45.2,52.1,44.2,52.1,44.2Z" style="fill:#6da62e"/><path d="M68.7,27a.37.37,0,0,1-.3.1c-.4,0-.6-.3-.7-.7a3.4,3.4,0,0,0-.1-1v-.3a.37.37,0,0,0-.1-.3,45.57,45.57,0,0,1-1.8-5.2c-.7-1.4-2-2.3-2.8-3.6a15.91,15.91,0,0,0-2.4-2,7.24,7.24,0,0,0-3-1.3A.64.64,0,0,1,57,12c-.1-.2-.1-.4-.3-.6h0a3.88,3.88,0,0,0-2.3-.9c-.2,0-.3,0-.4-.1h-.5c-.1,0-.1.1-.2.1-.4.1-.8.1-1.1.2a.52.52,0,0,1-.4.2c2.5.1,4.6.7,4.5,2.8,0,0,7.6,1.7,8.3,13.7s-6.2,18.3-6.2,18.3-.2.1-.7.3c.1,0,.1.1.2.1a2,2,0,0,1,.8-.4,6.92,6.92,0,0,0,1.9-1,22.85,22.85,0,0,0,3.3-2.9.37.37,0,0,1,.1-.3c.5-1,1.2-1.7,1.7-2.6A12.66,12.66,0,0,0,67,35.7a1.38,1.38,0,0,1,.3-.4,22.68,22.68,0,0,0,.5-3.5.6.6,0,0,1,.3-.6c.1-.4.1-.8.2-1.2,0-.1,0-.2.1-.2s0-.1-.1-.2a.71.71,0,0,1,.8-1l.2-1.4C69,27.1,68.8,27.1,68.7,27Z" style="fill:#c8c708"/><path d="M67.1,28.9a21.36,21.36,0,0,0-.6-5,15.43,15.43,0,0,0-1.9-4.6,14.7,14.7,0,0,0-3.2-3.8A14.48,14.48,0,0,0,57,13.1h-.2v-.2h0a2.56,2.56,0,0,0-1.4-1.3,4.48,4.48,0,0,0-2-.4,4.55,4.55,0,0,0-2,.5,1.74,1.74,0,0,0-1.1,1.5h0v.2l-.2.1A13.9,13.9,0,0,0,46,16.2a16.23,16.23,0,0,0-3,3.9,18.56,18.56,0,0,0-2.3,9.5,17.55,17.55,0,0,0,2.9,9.2,18.34,18.34,0,0,0,3.2,3.6A12.12,12.12,0,0,0,51,44.6h0l.4.2v.1a2,2,0,0,0,.9.9,3.08,3.08,0,0,0,1.3.3,5.07,5.07,0,0,0,1.3-.2,2.84,2.84,0,0,0,1.1-.8h0l.2-.2h.2a11,11,0,0,0,4.4-2.3,15.54,15.54,0,0,0,3.3-3.9,20.57,20.57,0,0,0,2.1-4.8,11.73,11.73,0,0,0,.9-5Zm1,0a24.16,24.16,0,0,1-.6,5.4,18.93,18.93,0,0,1-2.1,5.1,18.31,18.31,0,0,1-3.5,4.3A13.09,13.09,0,0,1,57,46.4l.3-.2h0a5.37,5.37,0,0,1-1.6,1,5.66,5.66,0,0,1-1.8.3,5.26,5.26,0,0,1-1.8-.4,7.54,7.54,0,0,1-1.7-1l.4.3h0a14.75,14.75,0,0,1-4.7-2.7,19,19,0,0,1-3.5-4,18.77,18.77,0,0,1-2.9-10,19.49,19.49,0,0,1,2.7-10,16,16,0,0,1,3.3-4A13.42,13.42,0,0,1,50.1,13l-.2.3h0a3.08,3.08,0,0,1,.3-1.3,2.58,2.58,0,0,1,.9-.9,4.76,4.76,0,0,1,2.3-.7,5.19,5.19,0,0,1,2.4.5,3.59,3.59,0,0,1,1,.7,2.38,2.38,0,0,1,.6,1.1h0l-.2-.2a12.65,12.65,0,0,1,4.6,2.4,18,18,0,0,1,3.4,3.9,20.57,20.57,0,0,1,2.1,4.8,20.05,20.05,0,0,1,.8,5.3Z"/><polygon points="57.6 27.8 56.4 30.2 56.7 33.4 57.6 35.2 60.3 36.7 65.2 36.9 67.5 34.6 68.9 30.5 67.6 28 63.4 26.8 58.1 27.2 57.6 27.8" style="fill:#2e2e2d"/><polygon points="40.7 27.8 39.5 30.2 39.8 33.3 40.7 35.1 43.3 36.9 48.5 36.6 50.6 34.5 52 30.4 50.7 27.9 46.5 26.7 41.2 27.2 40.7 27.8" style="fill:#2e2e2d"/><path d="M37.5,29l-.2-1.9a32.46,32.46,0,0,1,9.1-.6c4,.3,5.8,1.6,7.4,1.6s4.4-1.4,7.4-1.6a44.36,44.36,0,0,1,9.2.6l-.2,2s-.7,0-1,1.2c-.2.8-.3,2-.6,3.1a4.9,4.9,0,0,1-4.9,3.9c-1.3.1-4.7-.2-6.3-1.9a8.55,8.55,0,0,1-1.5-2.2,16,16,0,0,0-1.3-3.1,1.34,1.34,0,0,0-.9-.2,1.48,1.48,0,0,0-.7.1c-.5.3-.7,1.5-1.2,2.6a8.06,8.06,0,0,1-1.6,2.7c-1.7,2-4.9,2.1-6.3,2.1a5.34,5.34,0,0,1-4.2-2.1c-1.2-1.4-1.1-3.8-1.4-5.1,0-1.1-.8-1.2-.8-1.2Zm31.4-1.3c.5,0,.9.2.9.3s-.4.2-.9.2-.9-.2-.9-.3.4-.2.9-.2Zm-30,0c.5,0,.9,0,.9.2s-.4.3-.8.3-.9,0-.9-.2.3-.2.8-.3Zm10.6.3a3,3,0,0,1,1.7,2.2,8,8,0,0,1-1.9,5,6.87,6.87,0,0,1-3.9,1.5H44.2a8,8,0,0,1-1.6-.4A6.1,6.1,0,0,1,41,35a7.29,7.29,0,0,1-1.3-4.9,2.91,2.91,0,0,1,1.9-2.4,15.19,15.19,0,0,1,7.9.3Zm8.8,0a3,3,0,0,0-1.7,2.2,8,8,0,0,0,1.9,5,6.87,6.87,0,0,0,3.9,1.5h1.2a8,8,0,0,0,1.6-.4,5.91,5.91,0,0,0,1.7-1.2,7.29,7.29,0,0,0,1.3-4.9,2.91,2.91,0,0,0-1.9-2.4,14.52,14.52,0,0,0-8,.2Z" style="fill-rule:evenodd"/><path d="M67,30.4a1.76,1.76,0,0,1-1.6,1.8c-.9,0-1.6-1.1-1.6-2s.7-1.1,1.6-1.1S67,29.5,67,30.4Z" style="fill:#fff"/><path d="M64.5,32.5a.88.88,0,0,1-.8.9c-.4,0-.8-.6-.8-1s.3-.6.8-.6A.71.71,0,0,1,64.5,32.5Z" style="fill:#fff"/><path d="M59.8,40.6a.54.54,0,0,1-.5.5.56.56,0,0,1-.5-.6c0-.2.2-.3.5-.3S59.8,40.3,59.8,40.6Z" style="fill:#6da62e"/><path d="M57.9,40.1a.54.54,0,0,1-.5.5c-.3,0-.4-.4-.4-.6s.2-.3.5-.3A.37.37,0,0,1,57.9,40.1Z" style="fill:#6da62e"/><path d="M49.3,22.2a.54.54,0,0,1-.5.5.56.56,0,0,1-.5-.6c0-.3.2-.3.5-.3S49.3,21.9,49.3,22.2Z" style="fill:#6da62e"/><path d="M46.6,22.2a.54.54,0,0,1-.5.5.56.56,0,0,1-.5-.6c0-.3.2-.3.5-.3S46.6,21.9,46.6,22.2Z" style="fill:#6da62e"/><path d="M48.3,19.5a.54.54,0,0,1-.5.5.56.56,0,0,1-.5-.6c0-.3.2-.3.5-.3S48.3,19.2,48.3,19.5Z" style="fill:#6da62e"/><rect x="37.7" y="53.3" width="0.7" height="19.2"/><rect x="40.7" y="53.3" width="0.7" height="14.6"/><rect x="49.6" y="53.3" width="0.4" height="14.6"/><rect x="50.9" y="53.3" width="0.4" height="14.6"/><rect x="53.9" y="53.3" width="1" height="14.6"/><rect x="51.9" y="53.3" width="0.9" height="14.6"/><rect x="55.6" y="53.3" width="1.6" height="14.6"/><rect x="59.6" y="53.3" width="1.6" height="14.6"/><rect x="66.1" y="53.3" width="0.4" height="14.6"/><rect x="67.1" y="53.3" width="0.8" height="14.6"/><rect x="73.2" y="53.3" width="0.4" height="14.6"/><rect x="88.8" y="53.3" width="0.4" height="14.6"/><rect x="93.2" y="53.3" width="0.4" height="14.6"/><rect x="94.6" y="53.3" width="0.4" height="14.6"/><rect x="95.7" y="53.3" width="0.9" height="14.6"/><rect x="98.5" y="53.3" width="1.6" height="14.6"/><rect x="101" y="53.3" width="2.8" height="14.6"/><rect x="79.7" y="53.3" width="0.4" height="14.6"/><rect x="77.7" y="53.3" width="0.4" height="14.6"/><rect x="69.7" y="53.3" width="2.8" height="14.6"/><rect x="75.5" y="53.3" width="1.5" height="14.6"/><rect x="80.7" y="53.3" width="1.5" height="14.6"/><rect x="83.1" y="53.3" width="1.1" height="14.6"/><rect x="85.1" y="53.3" width="0.8" height="14.6"/><rect x="89.9" y="53.3" width="1.7" height="14.6"/><rect x="86.7" y="53.3" width="0.4" height="14.6"/><rect x="62.1" y="53.3" width="2.6" height="14.6"/><rect x="42.4" y="53.3" width="1.5" height="14.6"/><rect x="46" y="53.3" width="2.8" height="14.6"/><path d="M40.6,71a.58.58,0,0,1,.6-.6,1.72,1.72,0,0,1,.8.1v.3h-.7c-.2,0-.3,0-.3.2v.1c0,.2.1.2.2.2h.3c.4,0,.5.3.5.6V72a.53.53,0,0,1-.6.6,1.72,1.72,0,0,1-.8-.1v-.3h.8c.1,0,.3,0,.3-.2h0c0-.1,0-.2-.2-.2h-.3a.57.57,0,0,1-.6-.6Z"/><path d="M42.6,70.5H43v1.2c0,.5.1.6.4.6s.4-.1.4-.6V70.5h.4v1.2c0,1-.5,1-.8,1s-.8,0-.8-1Z"/><path d="M44.7,70.5h.4l.9,1.4V70.5h.4v2.2H46l-.9-1.4v1.4h-.4Z"/><path d="M46.8,70.5h.4v1.6c0,.2.1.2.2.2h.7v.4h-.9c-.2,0-.5-.1-.5-.4V70.5Z"/><path d="M48.6,70.5H49v2.2h-.4Z"/><path d="M49.6,70.5h.6l.4,1.5.4-1.5h.6l.2,2.2h-.4l-.1-1.4L51,72.7h-.5l-.4-1.4L50,72.7h-.4Z"/><path d="M52,70.9c0-.4.3-.5.5-.4h1v.3h-.9c-.2,0-.2.1-.2.2v.3h.9v.3h-.9v.3c0,.2.1.2.2.2h.8v.3c-.2,0-.9.1-.9.1-.2,0-.5,0-.5-.4Z"/><path d="M54.7,70.5h.9c.3,0,.6.1.6.7s-.4.7-.6.7a4.33,4.33,0,0,1-.5-.1v.9h-.4Zm.9,1c.1,0,.2-.1.2-.3s-.1-.3-.2-.3h-.5v.6Z"/><path d="M57.5,70.5c.5,0,.9.1.9,1.1s-.3,1.1-.9,1.1-.9-.1-.9-1.1S57,70.5,57.5,70.5Zm0,1.8c.3,0,.5-.1.5-.7s-.1-.7-.5-.7-.5,0-.5.7S57.1,72.3,57.5,72.3Z"/><path d="M58.7,71a.58.58,0,0,1,.6-.6,1.72,1.72,0,0,1,.8.1v.3h-.7c-.2,0-.3,0-.3.2v.1c0,.2.1.2.2.2h.3c.4,0,.5.3.5.6V72a.53.53,0,0,1-.6.6,1.72,1.72,0,0,1-.8-.1v-.3h.8c.1,0,.3,0,.3-.2h0c0-.1,0-.2-.2-.2h-.3a.57.57,0,0,1-.6-.6Z"/><path d="M60.5,70.5h1.6v.4h-.6v1.8h-.4V70.9h-.6Z"/><path d="M62.3,71.6h.9V72h-.9Z"/><path d="M63.6,70.5H64v1.6c0,.2.1.2.2.2h.7v.4H64c-.2,0-.5-.1-.5-.4V70.5Z"/><path d="M66,70.5h.5l.7,2.2h-.4l-.2-.5h-.7l-.2.5h-.4Zm.5,1.3-.3-.8-.2.8Z"/><path d="M67.5,70.5h.9a.58.58,0,0,1,.6.6.55.55,0,0,1-.3.5c.2,0,.3.2.3.5a.53.53,0,0,1-.6.6h-.9Zm.9.8a.22.22,0,0,0,.2-.2c0-.2-.1-.2-.2-.2h-.5v.5h.5Zm0,1c.1,0,.2-.1.2-.3s-.1-.3-.2-.3h-.5v.6Z"/><path d="M69.5,70.9c0-.4.3-.5.5-.4h1v.3H70c-.2,0-.2.1-.2.2v.3h.9v.3h-.9v.3c0,.2.1.2.2.2h.8v.3c-.2,0-.9.1-.9.1-.2,0-.5,0-.5-.4V70.9Z"/><path d="M71.3,70.5h.4v1.6c0,.2.1.2.2.2h.7v.4h-.9c-.2,0-.5-.1-.5-.4V70.5Z"/><path d="M72.9,71.6h.9V72h-.9Z"/><path d="M74.4,70.5H75l.4,1.5.4-1.5h.6l.2,2.2H76l-.1-1.4-.3,1.4h-.5l-.4-1.4-.1,1.4h-.4Z"/><path d="M77.5,70.5H78l.7,2.2h-.4l-.2-.5h-.7l-.2.5h-.4Zm.5,1.3-.2-.8-.3.8Z"/><path d="M79.1,70.5h.4l.9,1.4V70.5h.4v2.2h-.4l-.9-1.4v1.4h-.4Z"/><path d="M81.9,70.5h.5l.7,2.2h-.4l-.2-.5h-.7l-.2.5h-.4Zm.5,1.3-.3-.8-.3.8Z"/><path d="M84,70.5a2.2,2.2,0,0,1,.8.1v.3a3.55,3.55,0,0,0-.7-.1c-.3,0-.4.2-.4.7s.1.7.4.7a1,1,0,0,0,.4-.1v-.4h-.3v-.3a.75.75,0,0,1,.5-.1h.2v1.2h-.3l-.1-.1a.59.59,0,0,1-.5.2c-.6,0-.7-.5-.7-1.1S83.4,70.5,84,70.5Z"/><path d="M85.3,70.9c0-.4.3-.5.5-.4h1v.3h-.9c-.2,0-.2.1-.2.2v.3h.9v.3h-.9v.3c0,.2.1.2.2.2h.8v.3c-.2,0-.9.1-.9.1-.2,0-.5,0-.5-.4Z"/><path d="M87.1,70.5H88c.3,0,.6.2.6.7s-.2.6-.3.6l.4.9h-.5l-.4-.8h-.4v.9H87V70.5Zm.9,1c.1,0,.2,0,.2-.3s-.1-.3-.2-.3h-.5v.6Z"/><path d="M90.6,71.1c.5,0,.7.1.7.6a.37.37,0,0,1-.4.4h-.5c0,.3.1.3.3.3h.6v.3a2.2,2.2,0,0,1-.8.1c-.4,0-.5-.2-.5-.8C89.9,71.2,90.1,71.1,90.6,71.1Zm.1.6c.1,0,.1,0,.1-.1s0-.2-.2-.2-.3,0-.3.4h.4Z"/><path d="M91.6,71.5a.37.37,0,0,1,.4-.4,1.72,1.72,0,0,1,.8.1v.3h-.7c-.1,0-.1,0-.1.1v.1a.1.1,0,0,0,.1.1h.4a.37.37,0,0,1,.4.4v.2a.37.37,0,0,1-.4.4,2.22,2.22,0,0,1-.9-.1v-.3h.7a.1.1,0,0,0,.1-.1v-.1c0-.1,0-.1-.1-.1H92c-.3,0-.4-.1-.4-.4Z"/><path d="M93.1,71.2l.3-.1.1-.4h.3v.4h.4v.3h-.4V72a.44.44,0,0,0,.1.3l.2.1v.3h-.4c-.2,0-.4-.1-.4-.6v-.7H93v-.2Z"/><path d="M94.6,72.3h0l.3-.1c.1,0,.1,0,.1.1v.3c0,.1,0,.1-.1.1h-.3a.1.1,0,0,1-.1-.1v-.3Z"/><path d="M96.3,70.5c.3,0,.5-.1.9-.1s.6.3.6.7-.6,1-.8,1.1h.8v.4H96.3v-.4c.3-.2,1.1-.8,1.1-1.2,0-.2-.1-.3-.4-.3h-.8v-.2Z"/><path d="M98.2,71c0-.4.2-.5.5-.5h.5c.4,0,.5.2.5.5v1.1c0,.4-.2.5-.5.5h-.5a.47.47,0,0,1-.5-.5Zm.7,1.3h.3a.22.22,0,0,0,.2-.2v-1a.22.22,0,0,0-.2-.2h-.3c-.2,0-.2.1-.2.2v1C98.6,72.2,98.8,72.3,98.9,72.3Z"/><path d="M100.2,70.5c.3,0,.5-.1.9-.1s.6.3.6.7-.6,1-.8,1.1h.8v.4h-1.5v-.4c.3-.2,1.1-.8,1.1-1.2,0-.2-.1-.3-.4-.3h-.8v-.2Z"/><path d="M102.1,71c0-.4.2-.5.5-.5h.5c.4,0,.5.2.5.5v1.1c0,.4-.2.5-.5.5h-.5a.47.47,0,0,1-.5-.5Zm.7,1.3h.2a.22.22,0,0,0,.2-.2v-1a.22.22,0,0,0-.2-.2h-.3c-.2,0-.2.1-.2.2v1C102.5,72.2,102.7,72.3,102.8,72.3Z"/><polygon points="102.5 17.7 89.4 7.4 77.2 17.7 82.5 17.7 82.5 41 97.2 41 97.2 17.7 102.5 17.7"/><rect x="77.4" y="44.8" width="25" height="2.7"/></svg>