<?xml version="1.0" encoding="utf-8"?>
<!-- Generator: Adobe Illustrator 24.3.0, SVG Export Plug-In . SVG Version: 6.00 Build 0)  -->
<svg version="1.1" id="Ebene_1" xmlns="http://www.w3.org/2000/svg" xmlns:xlink="http://www.w3.org/1999/xlink" x="0px" y="0px"
	 viewBox="0 0 102.8 102.8" style="enable-background:new 0 0 102.8 102.8;" xml:space="preserve">
<style type="text/css">
	.st0{fill:#C9C80C;}
	.st1{fill:#31A437;}
	.st2{fill:#8CBC23;}
	.st3{fill:#020203;}
	.st4{fill:#97B521;}
	.st5{fill:#6DA72E;}
	.st6{fill:#2F2F2E;}
	.st7{fill-rule:evenodd;clip-rule:evenodd;fill:#020203;}
	.st8{fill:#FFFFFF;}
	.st9{fill:#010202;}
	.st10{fill:#FFDC04;}
</style>
<path class="st10" d="M96.4,102.8H6.5c-3.6,0-6.5-2.9-6.5-6.5V6.5C0,2.9,2.9,0,6.5,0h89.9c3.6,0,6.5,2.9,6.5,6.5v89.9
	C102.8,99.9,99.9,102.8,96.4,102.8z"/>
<g>
	<g id="leaf_2_">
		<path id="leaf_x5F_fill_2_" class="st1" d="M25.6,25.7c0,0,0-18.9,13.1-15.7c0,0,0.1,2.1-1.5,4.9c0,0,4.1-3.2,14,1.7
			C51.1,16.7,47.4,34.9,25.6,25.7z"/>
		<path id="shadow_x5F_bottom_2_" class="st2" d="M50.8,16.6c-0.2-0.1-0.5-0.2-0.7-0.3C49,15.8,48,15.3,46.8,15
			c-2.2-0.7-4.5-1.2-6.8-1.1C39.8,14,39.6,14,39.3,14c-0.1,0.1-0.3,0.2-0.5,0.2h0c-0.1,0.1-0.3,0.2-0.6,0.2c-0.2,0-0.4-0.1-0.5-0.2
			l-1.5,1.8c0,0,4-3.1,14.6,0.9C50.8,16.9,50.8,16.7,50.8,16.6z"/>
		<path id="shadow_x5F_top_2_" class="st2" d="M34.9,10.1c-1,0.1-1.9,0.4-2.8,0.8c-0.1,0-0.1,0.1-0.2,0.1c-0.9,1-1.9,2.1-1.9,2.1
			s3.2-3.5,8.6-2.3c0-0.2,0.1-0.4,0.1-0.5c-0.2-0.1-0.5-0.2-0.7-0.3C36.9,10,35.9,9.9,34.9,10.1z"/>
		<g id="leaf_x5F_contour_2_">
			<path class="st3" d="M25.2,25.7c0-1,0-2,0.1-3s0.2-2,0.4-3c0.1-0.5,0.2-1,0.4-1.5c0.1-0.5,0.3-1,0.5-1.5c0.3-1,0.8-1.9,1.3-2.8
				c0.5-0.9,1.2-1.8,2-2.5c0.8-0.7,1.7-1.3,2.7-1.7c0.5-0.2,1-0.3,1.6-0.4s1.1-0.1,1.6-0.1c1,0,2.1,0.2,3.1,0.5l0,0L39,9.8l0,0.3
				c0,0.3,0,0.5,0,0.7s-0.1,0.5-0.1,0.7c-0.1,0.4-0.2,0.9-0.3,1.3c-0.3,0.9-0.7,1.7-1.1,2.4L37,14.7c0.1-0.1,0.2-0.1,0.2-0.2
				c0.1,0,0.1-0.1,0.2-0.1c0.1-0.1,0.3-0.1,0.4-0.2c0.3-0.1,0.6-0.2,0.9-0.3c0.6-0.2,1.2-0.3,1.9-0.3c1.3-0.1,2.5,0,3.7,0.3
				c1.2,0.2,2.4,0.6,3.6,1c1.2,0.4,2.3,0.9,3.4,1.5l0,0l0.2,0.1l-0.1,0.3c-0.1,0.4-0.1,0.7-0.2,1c-0.1,0.3-0.2,0.7-0.3,1
				c-0.2,0.6-0.5,1.3-0.8,1.9c-0.3,0.6-0.6,1.2-1,1.8S48.4,23.5,48,24c-0.9,1-1.9,1.9-3.1,2.7c-1.2,0.7-2.4,1.3-3.8,1.6
				c-1.3,0.4-2.7,0.5-4.1,0.5c-1.4,0-2.7-0.1-4-0.4c-1.3-0.2-2.6-0.6-3.9-1c-1.3-0.4-2.5-0.9-3.7-1.5L25.2,26L25.2,25.7z M26,25.4
				c1.1,0.4,2.3,0.8,3.5,1.2c1.3,0.4,2.5,0.6,3.8,0.8c1.3,0.2,2.6,0.3,3.8,0.2s2.5-0.2,3.7-0.5c1.2-0.3,2.4-0.9,3.4-1.5
				c1.1-0.7,2-1.5,2.9-2.4c0.4-0.5,0.8-1,1.2-1.5c0.4-0.5,0.7-1.1,1-1.6c0.3-0.5,0.6-1.1,0.9-1.7c0.2-0.6,0.5-1.2,0.7-1.8L51,17l0,0
				c-1.1-0.5-2.2-1-3.3-1.4c-1.1-0.4-2.3-0.7-3.5-1c-1.2-0.2-2.4-0.3-3.5-0.2c-0.6,0-1.2,0.1-1.7,0.3c-0.3,0.1-0.5,0.2-0.8,0.3
				C38,14.9,37.9,15,37.7,15c-0.1,0-0.1,0.1-0.2,0.1c-0.1,0-0.1,0.1-0.2,0.1l-1.5,1.1l0.9-1.6c0.4-0.7,0.8-1.5,1-2.3
				c0.1-0.4,0.2-0.8,0.3-1.2c0-0.2,0.1-0.4,0.1-0.6c0-0.2,0-0.4,0-0.6l0.3,0.3l0,0c-1-0.2-1.9-0.3-2.9-0.2c-0.9,0.1-1.9,0.2-2.7,0.6
				c-0.9,0.4-1.6,0.9-2.3,1.5c-0.7,0.6-1.2,1.4-1.7,2.2c-0.5,0.8-0.9,1.7-1.2,2.6c-0.2,0.5-0.3,0.9-0.5,1.4
				c-0.1,0.5-0.3,0.9-0.4,1.4c-0.2,1-0.4,1.9-0.6,2.9C26.1,23.7,26,24.6,26,25.4z"/>
		</g>
	</g>
	<g id="body_2_">
		<path id="body_x5F_fill_2_" class="st4" d="M47,37.4c0-10.3-5.9-18.6-13.4-20.7c-0.4-1.5-2.3-2.6-4.5-2.6c-2.5,0-4.6,1.4-4.6,3.1
			c0,0,0,0,0,0c-7.1,2.8-12.7,11-12.7,20.6c0,10.1,6.2,18.6,13.8,21c0.8,1,2.2,1.7,3.9,1.7c1.5,0,2.8-0.6,3.7-1.5
			C40.8,57,47,47.9,47,37.4z"/>
		<path id="shadow_x5F_dark_2_" class="st5" d="M27,57c-14.2-6.9-14.8-18.8-13.2-27.2c-0.1,0-0.1,0.1-0.2,0.1
			c-0.1,0-0.1,0.1-0.2,0.1c-0.6,1.2-1.1,2.4-1.5,3.6c0,0,0,0,0,0c-0.2,3.7-0.9,7.4-0.2,11.1c0,0.2,0.1,0.4,0.1,0.5
			c0.3,0.2,0.6,0.5,0.8,0.9c0.6,1,1.1,2,1.6,3.1c0.6,0.7,1.3,1.4,1.9,2.1c0.5,0.6,0.8,1.3,1.2,1.8c0.5,0.6,1,1.1,1.6,1.6
			c1.2,0.9,2.5,1.6,3.5,2.7c0.1,0.1,0.2,0.2,0.3,0.3c1.4,0.3,2.7,1,4,1.5c0.7,0.3,1.4,0.4,2.1,0.5C26.8,58.4,27,57,27,57z"/>
		<path id="shadow_x5F_light_2_" class="st0" d="M48.4,35c-0.1,0.1-0.3,0.1-0.4,0.1c-0.5,0-0.8-0.4-0.9-0.9C47,33.8,47,33.4,47,32.9
			c0-0.1,0-0.2,0.1-0.3c0-0.1-0.1-0.3-0.1-0.4c-0.8-2.2-1.8-4.4-2.4-6.6c-0.9-1.8-2.6-2.9-3.6-4.6c-1-0.8-1.9-1.9-3-2.6
			c-1.3-0.7-2.4-1.5-3.9-1.7c-0.5-0.1-0.7-0.5-0.6-0.9c-0.1-0.2-0.1-0.5-0.4-0.7c0,0,0,0,0,0c-0.9-0.7-1.8-1.1-3-1.2
			c-0.2,0-0.4-0.1-0.5-0.1c-0.2,0-0.4,0-0.5,0c0,0-0.1,0-0.1,0c-0.1,0-0.2,0.1-0.3,0.1c-0.5,0.1-1,0.2-1.5,0.2
			c-0.1,0.1-0.3,0.2-0.5,0.3c3.2,0.1,5.9,0.9,5.8,3.6c0,0,9.7,2.2,10.7,17.6s-8,23.5-8,23.5s-0.2,0.2-1,0.4c0.1,0,0.2,0.1,0.2,0.1
			c0.3-0.2,0.6-0.4,1-0.5c0.9-0.3,1.6-0.7,2.4-1.3c1.5-1.1,3-2.4,4.3-3.7c0-0.1,0-0.3,0.1-0.4c0.6-1.2,1.5-2.2,2.2-3.4
			c0.7-1.3,1.3-2.7,1.7-4.1c0.1-0.3,0.2-0.4,0.4-0.5c0.4-1.5,0.6-3,0.6-4.6c0-0.3,0.2-0.6,0.4-0.7c0.1-0.5,0.1-1,0.2-1.5
			c0-0.1,0-0.2,0.1-0.3c0-0.1,0-0.1-0.1-0.2c-0.4-0.8,0.4-1.5,1-1.3l0.2-1.8C48.7,35,48.6,35,48.4,35z"/>
		<g id="contour_2_">
			<path class="st3" d="M46.4,37.4c0-2.2-0.2-4.3-0.7-6.4s-1.3-4.1-2.4-6c-1.1-1.8-2.5-3.5-4.1-4.9c-1.6-1.4-3.6-2.5-5.6-3.1
				L33.2,17l-0.1-0.2l0,0c-0.3-0.8-1-1.3-1.8-1.7c-0.8-0.3-1.7-0.5-2.6-0.5c-0.9,0-1.8,0.2-2.6,0.7c-0.8,0.4-1.4,1.1-1.4,1.9l0,0
				v0.2l-0.2,0.1c-2,0.8-3.8,2-5.3,3.5c-1.5,1.5-2.9,3.2-3.9,5c-2.1,3.7-3.1,8-2.9,12.3c0.2,4.2,1.5,8.4,3.8,11.9
				c1.2,1.7,2.6,3.3,4.2,4.6c1.6,1.3,3.4,2.3,5.4,2.9l0,0l0.5,0.2l0.1,0.1c0.2,0.5,0.7,0.9,1.2,1.1c0.5,0.3,1.1,0.4,1.7,0.4
				s1.2-0.1,1.7-0.3c0.5-0.2,1-0.6,1.4-1l0,0l0.2-0.2l0.2-0.1c2.1-0.5,4-1.6,5.7-3c1.7-1.4,3.1-3.1,4.3-5c1.2-1.9,2-4,2.6-6.1
				C46,41.9,46.3,39.7,46.4,37.4L46.4,37.4z M47.6,37.4c0,2.4-0.2,4.7-0.8,7c-0.6,2.3-1.5,4.5-2.7,6.6s-2.7,4-4.5,5.5
				c-1.8,1.6-4,2.8-6.3,3.5l0.4-0.2l0,0c-0.6,0.6-1.3,1-2.1,1.3c-0.8,0.3-1.6,0.4-2.4,0.4c-0.8,0-1.6-0.2-2.4-0.5
				c-0.8-0.3-1.5-0.7-2.1-1.3l0.5,0.3l0,0c-2.2-0.7-4.3-1.9-6-3.4c-1.8-1.5-3.2-3.2-4.4-5.2c-2.4-3.8-3.7-8.3-3.8-12.8
				c-0.1-4.5,1.1-9,3.4-12.8c1.1-1.9,2.6-3.7,4.2-5.2c1.6-1.5,3.6-2.7,5.7-3.5l-0.2,0.3l0,0c-0.1-0.6,0.1-1.2,0.4-1.6
				c0.3-0.5,0.7-0.9,1.2-1.1c0.9-0.6,2-0.8,3-0.9c1,0,2.1,0.1,3.1,0.6c0.5,0.2,0.9,0.5,1.3,0.9c0.4,0.4,0.7,0.9,0.8,1.5l0,0
				l-0.2-0.3c2.2,0.6,4.2,1.7,6,3.1c1.8,1.4,3.2,3.2,4.4,5.1c1.2,1.9,2.1,4,2.7,6.2C47.3,32.9,47.6,35.2,47.6,37.4L47.6,37.4z"/>
		</g>
	</g>
	<g id="glasses_3_">
		<polygon id="lins_x5F_right_3_" class="st6" points="34.1,36 32.5,39.1 33,43.1 34.1,45.5 37.6,47.5 43.9,47.7 46.9,44.7 
			48.6,39.5 46.9,36.3 41.6,34.7 34.8,35.3 		"/>
		<polygon id="lins_x5F_left_3_" class="st6" points="12.4,35.9 10.8,39 11.2,43 12.4,45.4 15.7,47.7 22.4,47.3 25.1,44.6 
			26.9,39.4 25.2,36.2 19.9,34.6 13,35.2 		"/>
		<path id="frame_3_" class="st7" d="M8.2,37.5L8,35c0,0,5.4-1.2,11.7-0.7c5.2,0.4,7.4,2.1,9.6,2c2.1-0.1,5.6-1.8,9.6-2
			C45.3,34,50.7,35,50.7,35l-0.3,2.6c0,0-0.9,0.1-1.3,1.5c-0.3,1.1-0.4,2.6-0.7,4c-0.3,1-0.7,2-1.3,2.8c-1.2,1.6-3.2,2.2-5,2.3
			c-1.6,0.1-6.1-0.3-8.1-2.4c-0.8-0.8-1.5-1.9-1.9-2.9c-0.7-1.5-1-3.3-1.7-4c-0.3-0.3-0.7-0.3-1.2-0.3c-0.3,0-0.6-0.1-0.9,0.1
			c-0.6,0.4-0.9,2-1.5,3.4c-0.5,1.2-1.2,2.6-2,3.5c-2.2,2.5-6.3,2.8-8.1,2.7c-1.8-0.1-3.6-0.5-5.4-2.7C9.8,43.7,10,40.7,9.5,39
			C9.3,37.7,8.2,37.5,8.2,37.5L8.2,37.5z M48.6,35.9c0.6,0.1,1.1,0.2,1.1,0.4c0,0.2-0.5,0.3-1.1,0.2c-0.6,0-1.1-0.2-1.1-0.4
			C47.5,35.9,48,35.8,48.6,35.9L48.6,35.9z M10,35.9c0.6-0.1,1.1,0,1.2,0.2c0.1,0.2-0.5,0.4-1.1,0.4c-0.6,0.1-1.1,0-1.2-0.2
			C8.9,36.1,9.4,35.9,10,35.9L10,35.9z M23.7,36.2c1.4,0.6,2.1,2.1,2.1,2.9c0,1.6-0.7,4.8-2.4,6.4c-2,1.8-5,1.9-5,1.9h-1.5
			c0,0-1-0.1-2-0.5c-0.8-0.3-1.5-0.9-2.1-1.6c-1.5-1.8-1.9-4.8-1.7-6.3c0.1-1.3,1-2.5,2.4-3.1C15.5,35.1,21.6,35.2,23.7,36.2
			L23.7,36.2z M35,36.2c-1.4,0.6-2.1,2.1-2.1,2.9c0,1.6,0.7,4.8,2.4,6.4c2,1.8,5,1.9,5,1.9h1.5c0,0,1-0.1,2-0.5
			c0.8-0.3,1.5-0.9,2.1-1.6c1.5-1.8,1.9-4.8,1.7-6.3c-0.1-1.3-1-2.5-2.4-3.1C43.2,35.1,37.2,35.2,35,36.2L35,36.2z"/>
		<path id="blick_x5F_big_3_" class="st8" d="M46.3,39.3c0,1.1-0.9,2.4-2,2.4c-1.1,0-2-1.4-2-2.5c0-1.1,0.9-1.5,2-1.5
			C45.4,37.7,46.3,38.2,46.3,39.3z"/>
		<path id="blick_x5F_small_3_" class="st8" d="M43,42c0,0.5-0.4,1.2-1,1.2c-0.5,0-1-0.7-1-1.3c0-0.5,0.4-0.7,1-0.7
			C42.6,41.2,43,41.4,43,42z"/>
	</g>
	<g id="dots_2_">
		<path id="dot_x5F_right_x5F_bottom_2_" class="st5" d="M37,52.4c0,0.3-0.3,0.6-0.6,0.6c-0.3,0-0.6-0.4-0.6-0.8
			c0-0.3,0.3-0.4,0.6-0.4C36.8,51.8,37,52.1,37,52.4z"/>
		<path id="dot_x5F_left_x5F_bottom_2_" class="st5" d="M34.5,51.8c0,0.3-0.3,0.6-0.6,0.6c-0.3,0-0.6-0.4-0.6-0.8
			c0-0.3,0.3-0.4,0.6-0.4C34.2,51.2,34.5,51.5,34.5,51.8z"/>
		<path id="dot_x5F_right_x5F_top_2_" class="st5" d="M23.4,28.8c0,0.3-0.3,0.6-0.6,0.6s-0.6-0.4-0.6-0.8s0.3-0.4,0.6-0.4
			S23.4,28.4,23.4,28.8z"/>
		<path id="dot_x5F_left_x5F_top_2_" class="st5" d="M20,28.8c0,0.3-0.3,0.6-0.6,0.6s-0.6-0.4-0.6-0.8s0.3-0.4,0.6-0.4
			C19.7,28.2,20,28.4,20,28.8z"/>
		<path id="dot_x5F_top_2_" class="st5" d="M22.2,25.2c0,0.3-0.3,0.6-0.6,0.6S21,25.4,21,25.1s0.3-0.4,0.6-0.4S22.2,24.9,22.2,25.2z
			"/>
	</g>
</g>
<g>
	<rect x="8.5" y="68.8" class="st9" width="1" height="24.6"/>
	<rect x="12.4" y="68.8" class="st9" width="1" height="18.7"/>
	<rect x="23.8" y="68.8" class="st9" width="0.5" height="18.7"/>
	<rect x="25.4" y="68.8" class="st9" width="0.5" height="18.7"/>
	<rect x="29.4" y="68.8" class="st9" width="1.3" height="18.7"/>
	<rect x="26.8" y="68.8" class="st9" width="1.1" height="18.7"/>
	<rect x="31.5" y="68.8" class="st9" width="2.1" height="18.7"/>
	<rect x="36.7" y="68.8" class="st9" width="2.1" height="18.7"/>
	<rect x="45" y="68.8" class="st9" width="0.5" height="18.7"/>
	<rect x="46.3" y="68.8" class="st9" width="1.1" height="18.7"/>
	<rect x="54.1" y="68.8" class="st9" width="0.5" height="18.7"/>
	<rect x="74.3" y="68.8" class="st9" width="0.5" height="18.7"/>
	<rect x="80" y="68.8" class="st9" width="0.5" height="18.7"/>
	<rect x="81.8" y="68.8" class="st9" width="0.5" height="18.7"/>
	<rect x="83.1" y="68.8" class="st9" width="1.1" height="18.7"/>
	<rect x="86.7" y="68.8" class="st9" width="2.1" height="18.7"/>
	<rect x="90" y="68.8" class="st9" width="3.6" height="18.7"/>
	<rect x="62.5" y="68.8" class="st9" width="0.5" height="18.7"/>
	<rect x="59.9" y="68.8" class="st9" width="0.5" height="18.7"/>
	<rect x="49.6" y="68.8" class="st9" width="3.6" height="18.7"/>
	<rect x="57.1" y="68.8" class="st9" width="1.9" height="18.7"/>
	<rect x="63.9" y="68.8" class="st9" width="1.9" height="18.7"/>
	<rect x="66.9" y="68.8" class="st9" width="1.4" height="18.7"/>
	<rect x="69.5" y="68.8" class="st9" width="1" height="18.7"/>
	<rect x="75.7" y="68.8" class="st9" width="2.2" height="18.7"/>
	<rect x="71.5" y="68.8" class="st9" width="0.5" height="18.7"/>
	<rect x="39.9" y="68.8" class="st9" width="3.4" height="18.7"/>
	<rect x="14.5" y="68.8" class="st9" width="1.9" height="18.7"/>
	<rect x="19.2" y="68.8" class="st9" width="3.6" height="18.7"/>
	<g>
		<path class="st3" d="M12.3,91.6c0-0.6,0.3-0.7,0.8-0.7c0.4,0,0.9,0,1.1,0.1v0.4c-0.2,0-0.8,0-0.9,0c-0.2,0-0.4,0-0.4,0.3v0.1
			c0,0.2,0.1,0.3,0.3,0.3h0.4c0.5,0,0.7,0.4,0.7,0.7V93c0,0.6-0.4,0.7-0.8,0.7c-0.5,0-0.8,0-1.1-0.1v-0.4c0.2,0,0.6,0,1,0
			c0.2,0,0.3,0,0.3-0.2v-0.2c0-0.2,0-0.3-0.3-0.3H13c-0.7,0-0.7-0.5-0.7-0.7V91.6z"/>
		<path class="st3" d="M14.8,90.9h0.5v1.6c0,0.6,0.1,0.7,0.5,0.7c0.4,0,0.5-0.1,0.5-0.7v-1.6h0.5v1.6c0,1.2-0.6,1.2-1.1,1.2
			c-0.5,0-1.1,0-1.1-1.2V90.9z"/>
		<path class="st3" d="M17.5,90.9H18l1.1,1.8v-1.8h0.5v2.8h-0.5L18,91.9v1.8h-0.5V90.9z"/>
		<path class="st3" d="M20.3,90.9h0.5V93c0,0.2,0.1,0.2,0.2,0.2h1v0.5h-1.1c-0.3,0-0.6-0.1-0.6-0.5V90.9z"/>
		<path class="st3" d="M22.5,90.9H23v2.8h-0.5V90.9z"/>
		<path class="st3" d="M23.8,90.9h0.7l0.5,1.9l0.5-1.9h0.7l0.3,2.8h-0.5l-0.2-1.9l-0.4,1.9h-0.6l-0.5-1.9l-0.2,1.9h-0.5L23.8,90.9z"
			/>
		<path class="st3" d="M26.9,91.5c0-0.5,0.3-0.6,0.6-0.6c0,0,1,0,1.2,0.1v0.4h-1.1c-0.2,0-0.2,0.1-0.2,0.2v0.4l1.1,0v0.4l-1.1,0V93
			c0,0.2,0.1,0.2,0.2,0.2h1.1v0.4c-0.2,0-1.2,0.1-1.2,0.1c-0.2,0-0.6,0-0.6-0.6V91.5z"/>
		<path class="st3" d="M30.4,90.9h1.2c0.3,0,0.8,0.1,0.8,0.9c0,0.8-0.5,0.9-0.8,0.9c-0.2,0-0.6-0.1-0.7-0.1v1.1h-0.5V90.9z
			 M31.6,92.2c0.2,0,0.3-0.1,0.3-0.4c0-0.3-0.1-0.4-0.3-0.4h-0.6v0.8H31.6z"/>
		<path class="st3" d="M33.9,90.9c0.7,0,1.1,0.1,1.1,1.4c0,1.2-0.4,1.4-1.1,1.4c-0.7,0-1.1-0.1-1.1-1.4C32.8,91,33.3,90.9,33.9,90.9
			z M33.9,93.2c0.4,0,0.6-0.1,0.6-0.9c0-0.9-0.2-0.9-0.6-0.9c-0.4,0-0.6,0.1-0.6,0.9C33.3,93.1,33.5,93.2,33.9,93.2z"/>
		<path class="st3" d="M35.6,91.6c0-0.6,0.3-0.7,0.8-0.7c0.4,0,0.9,0,1.1,0.1v0.4c-0.2,0-0.8,0-0.9,0c-0.2,0-0.4,0-0.4,0.3v0.1
			c0,0.2,0.1,0.3,0.3,0.3h0.4c0.5,0,0.7,0.4,0.7,0.7V93c0,0.6-0.4,0.7-0.8,0.7c-0.5,0-0.8,0-1.1-0.1v-0.4c0.2,0,0.6,0,1,0
			c0.2,0,0.3,0,0.3-0.2v-0.2c0-0.2,0-0.3-0.3-0.3h-0.4c-0.7,0-0.7-0.5-0.7-0.7V91.6z"/>
		<path class="st3" d="M37.8,90.9h2.1v0.5h-0.8v2.3h-0.5v-2.3h-0.8V90.9z"/>
		<path class="st3" d="M40.1,92.4h1.2v0.4h-1.2V92.4z"/>
		<path class="st3" d="M41.8,90.9h0.5V93c0,0.2,0.1,0.2,0.2,0.2h1v0.5h-1.1c-0.3,0-0.6-0.1-0.6-0.5V90.9z"/>
		<path class="st3" d="M44.9,90.9h0.6l0.9,2.8h-0.6l-0.2-0.6h-0.9l-0.2,0.6H44L44.9,90.9z M45.5,92.6l-0.3-1l-0.3,1H45.5z"/>
		<path class="st3" d="M46.9,90.9H48c0.6,0,0.8,0.3,0.8,0.7c0,0.3-0.1,0.5-0.4,0.6c0.2,0,0.4,0.3,0.4,0.6c0,0.5-0.2,0.8-0.8,0.8
			h-1.2V90.9z M48,92c0.2,0,0.3-0.1,0.3-0.3c0-0.3-0.2-0.3-0.3-0.3h-0.6V92H48z M48,93.2c0.2,0,0.3-0.1,0.3-0.4
			c0-0.2-0.1-0.4-0.3-0.4h-0.6v0.8H48z"/>
		<path class="st3" d="M49.4,91.5c0-0.5,0.3-0.6,0.6-0.6c0,0,1,0,1.2,0.1v0.4h-1.1c-0.2,0-0.2,0.1-0.2,0.2v0.4l1.1,0v0.4l-1.1,0V93
			c0,0.2,0.1,0.2,0.2,0.2h1.1v0.4c-0.2,0-1.2,0.1-1.2,0.1c-0.2,0-0.6,0-0.6-0.6V91.5z"/>
		<path class="st3" d="M51.7,90.9h0.5V93c0,0.2,0.1,0.2,0.2,0.2h1v0.5h-1.1c-0.3,0-0.6-0.1-0.6-0.5V90.9z"/>
		<path class="st3" d="M53.8,92.4H55v0.4h-1.2V92.4z"/>
		<path class="st3" d="M55.7,90.9h0.7l0.5,1.9l0.5-1.9h0.7l0.3,2.8h-0.5l-0.2-1.9l-0.4,1.9h-0.6l-0.5-1.9L56,93.7h-0.5L55.7,90.9z"
			/>
		<path class="st3" d="M59.8,90.9h0.6l0.9,2.8h-0.6l-0.2-0.6h-0.9l-0.2,0.6h-0.6L59.8,90.9z M60.4,92.6l-0.3-1l-0.3,1H60.4z"/>
		<path class="st3" d="M61.7,90.9h0.5l1.1,1.8v-1.8h0.5v2.8h-0.5l-1.1-1.8v1.8h-0.5V90.9z"/>
		<path class="st3" d="M65.4,90.9H66l0.9,2.8h-0.6l-0.2-0.6h-0.9L65,93.7h-0.6L65.4,90.9z M66,92.6l-0.3-1l-0.3,1H66z"/>
		<path class="st3" d="M68.1,90.9c0.4,0,0.7,0,1.1,0.1v0.4c0,0-0.5-0.1-0.9-0.1c-0.4,0-0.5,0.3-0.5,0.9c0,0.7,0.1,0.9,0.5,0.9
			c0.3,0,0.5-0.2,0.5-0.2v-0.5h-0.4v-0.3c0.2-0.1,0.4-0.1,0.7-0.1c0.1,0,0.2,0,0.3,0v1.6h-0.4l-0.1-0.2c-0.1,0.1-0.3,0.2-0.6,0.2
			c-0.8,0-0.9-0.6-0.9-1.4C67.2,91.5,67.3,90.9,68.1,90.9z"/>
		<path class="st3" d="M69.7,91.5c0-0.5,0.3-0.6,0.6-0.6c0,0,1,0,1.2,0.1v0.4h-1.1c-0.2,0-0.2,0.1-0.2,0.2v0.4l1.1,0v0.4l-1.1,0V93
			c0,0.2,0.1,0.2,0.2,0.2h1.1v0.4c-0.2,0-1.2,0.1-1.2,0.1c-0.2,0-0.6,0-0.6-0.6V91.5z"/>
		<path class="st3" d="M72.1,90.9h1.2c0.4,0,0.8,0.2,0.8,0.9c0,0.7-0.3,0.8-0.4,0.8l0.5,1.1h-0.6l-0.5-1.1l-0.5-0.1v1.1h-0.5V90.9z
			 M73.2,92.2c0.2,0,0.3-0.1,0.3-0.4c0-0.3-0.1-0.4-0.3-0.4h-0.6v0.8H73.2z"/>
		<path class="st3" d="M76.5,91.7c0.6,0,0.9,0.1,0.9,0.7c0,0.4-0.2,0.5-0.6,0.5h-0.6c0,0.4,0.1,0.4,0.4,0.4c0.3,0,0.5,0,0.7,0v0.4
			c-0.3,0.1-0.7,0.1-1,0.1c-0.5,0-0.7-0.3-0.7-1C75.7,91.8,75.9,91.7,76.5,91.7z M76.7,92.5c0.1,0,0.2-0.1,0.2-0.2
			c0-0.3,0-0.3-0.3-0.3c-0.3,0-0.4,0-0.4,0.5H76.7z"/>
		<path class="st3" d="M77.8,92.2c0-0.3,0.1-0.5,0.5-0.5c0.4,0,0.9,0,1.1,0.1v0.3h-0.9c-0.1,0-0.2,0-0.2,0.1v0.1
			c0,0.1,0.1,0.1,0.2,0.1H79c0.4,0,0.5,0.2,0.5,0.5v0.2c0,0.4-0.3,0.5-0.5,0.5c-0.4,0-1,0-1.1-0.1v-0.3h1c0,0,0.1,0,0.1-0.1V93
			c0-0.1,0-0.1-0.1-0.1h-0.5c-0.4,0-0.6-0.2-0.6-0.5V92.2z"/>
		<path class="st3" d="M79.8,91.8l0.3-0.1l0.1-0.6h0.4v0.6h0.5v0.4h-0.5v0.8c0,0.3,0.1,0.4,0.2,0.4c0,0,0.2,0.1,0.3,0.1v0.3h-0.5
			c-0.3,0-0.5-0.2-0.5-0.7v-0.9h-0.3V91.8z"/>
		<path class="st3" d="M81.7,93.3C81.7,93.2,81.7,93.2,81.7,93.3l0.4-0.1c0.1,0,0.1,0,0.1,0.1v0.3c0,0.1,0,0.1-0.1,0.1h-0.3
			c-0.1,0-0.1,0-0.1-0.1V93.3z"/>
		<path class="st3" d="M83.9,91c0.3-0.1,0.7-0.1,1.2-0.1c0.6,0,0.8,0.4,0.8,0.9c0,0.6-0.8,1.3-1.1,1.5h1.1v0.5h-2v-0.5
			c0.4-0.2,1.4-1,1.4-1.5c0-0.3-0.1-0.4-0.5-0.4h-1V91z"/>
		<path class="st3" d="M86.4,91.6c0-0.5,0.3-0.7,0.7-0.7h0.6c0.5,0,0.7,0.3,0.7,0.7V93c0,0.5-0.3,0.7-0.7,0.7h-0.6
			c-0.4,0-0.7-0.2-0.7-0.7V91.6z M87.2,93.2h0.4c0.2,0,0.3-0.1,0.3-0.3v-1.3c0-0.2-0.1-0.3-0.3-0.3h-0.4c-0.2,0-0.3,0.2-0.3,0.3v1.3
			C86.9,93.2,87.1,93.2,87.2,93.2z"/>
		<path class="st3" d="M88.9,91c0.3-0.1,0.7-0.1,1.2-0.1c0.6,0,0.8,0.4,0.8,0.9c0,0.6-0.8,1.3-1.1,1.5h1.1v0.5h-2v-0.5
			c0.4-0.2,1.4-1,1.4-1.5c0-0.3-0.1-0.4-0.5-0.4h-1V91z"/>
		<path class="st3" d="M91.4,91.6c0-0.5,0.3-0.7,0.7-0.7h0.6c0.5,0,0.7,0.3,0.7,0.7V93c0,0.5-0.3,0.7-0.7,0.7h-0.6
			c-0.4,0-0.7-0.2-0.7-0.7V91.6z M92.2,93.2h0.4c0.2,0,0.3-0.1,0.3-0.3v-1.3c0-0.2-0.1-0.3-0.3-0.3h-0.4c-0.2,0-0.3,0.2-0.3,0.3v1.3
			C91.9,93.2,92.1,93.2,92.2,93.2z"/>
	</g>
</g>
<g>
	<polygon class="st9" points="91.9,23 75,9.7 59.3,23 66.2,23 66.2,53 85,53 85,23 	"/>
	<rect x="59.5" y="57.9" class="st9" width="32.2" height="3.5"/>
</g>
</svg>
